<svg width="162" height="38" viewBox="0 0 162 38" fill="none" xmlns="http://www.w3.org/2000/svg">
<rect x="1" y="1" width="160" height="36" rx="4" fill="#808080" fill-opacity="0.55" stroke="black" stroke-opacity="0.12"/>
<g clip-path="url(#clip0_0_1573)">
<path fill-rule="evenodd" clip-rule="evenodd" d="M42.9165 19.925V13.1666C42.9165 12.8444 43.1777 12.5833 43.4998 12.5833C43.822 12.5833 44.0832 12.8444 44.0832 13.1666V19.925L45.4207 18.5874C45.6485 18.3596 46.0178 18.3596 46.2457 18.5874C46.4735 18.8152 46.4735 19.1846 46.2457 19.4124L43.9123 21.7457C43.8564 21.8017 43.7919 21.8439 43.7231 21.8723C43.6543 21.9008 43.5789 21.9166 43.4998 21.9166C43.4207 21.9166 43.3453 21.9008 43.2765 21.8723C43.2077 21.8439 43.1433 21.8017 43.0874 21.7457L43.0868 21.7452L40.754 19.4124C40.5262 19.1846 40.5262 18.8152 40.754 18.5874C40.9818 18.3596 41.3512 18.3596 41.579 18.5874L42.9165 19.925ZM37.6665 21.9166V23.6666C37.6665 24.6331 38.45 25.4166 39.4165 25.4166H47.5832C48.5497 25.4166 49.3332 24.6331 49.3332 23.6666V21.9166C49.3332 21.5944 49.072 21.3333 48.7498 21.3333C48.4277 21.3333 48.1665 21.5944 48.1665 21.9166V23.6666C48.1665 23.9888 47.9053 24.2499 47.5832 24.2499H39.4165C39.0943 24.2499 38.8332 23.9888 38.8332 23.6666V21.9166C38.8332 21.5944 38.572 21.3333 38.2498 21.3333C37.9277 21.3333 37.6665 21.5944 37.6665 21.9166Z" fill="black"/>
<mask id="mask0_0_1573" style="mask-type:luminance" maskUnits="userSpaceOnUse" x="37" y="12" width="13" height="14">
<path fill-rule="evenodd" clip-rule="evenodd" d="M42.9165 19.925V13.1666C42.9165 12.8444 43.1777 12.5833 43.4998 12.5833C43.822 12.5833 44.0832 12.8444 44.0832 13.1666V19.925L45.4207 18.5874C45.6485 18.3596 46.0178 18.3596 46.2457 18.5874C46.4735 18.8152 46.4735 19.1846 46.2457 19.4124L43.9123 21.7457C43.8564 21.8017 43.7919 21.8439 43.7231 21.8723C43.6543 21.9008 43.5789 21.9166 43.4998 21.9166C43.4207 21.9166 43.3453 21.9008 43.2765 21.8723C43.2077 21.8439 43.1433 21.8017 43.0874 21.7457L43.0868 21.7452L40.754 19.4124C40.5262 19.1846 40.5262 18.8152 40.754 18.5874C40.9818 18.3596 41.3512 18.3596 41.579 18.5874L42.9165 19.925ZM37.6665 21.9166V23.6666C37.6665 24.6331 38.45 25.4166 39.4165 25.4166H47.5832C48.5497 25.4166 49.3332 24.6331 49.3332 23.6666V21.9166C49.3332 21.5944 49.072 21.3333 48.7498 21.3333C48.4277 21.3333 48.1665 21.5944 48.1665 21.9166V23.6666C48.1665 23.9888 47.9053 24.2499 47.5832 24.2499H39.4165C39.0943 24.2499 38.8332 23.9888 38.8332 23.6666V21.9166C38.8332 21.5944 38.572 21.3333 38.2498 21.3333C37.9277 21.3333 37.6665 21.5944 37.6665 21.9166Z" fill="white"/>
</mask>
<g mask="url(#mask0_0_1573)">
<rect x="36.5" y="12" width="14" height="14" fill="#FF3B30"/>
</g>
<path d="M55.97 24.5V14.7H60.1C61.1453 14.7 62.0647 14.9053 62.858 15.316C63.6607 15.7267 64.2813 16.3007 64.72 17.038C65.168 17.7753 65.392 18.6293 65.392 19.6C65.392 20.5707 65.168 21.4247 64.72 22.162C64.2813 22.8993 63.6607 23.4733 62.858 23.884C62.0647 24.2947 61.1453 24.5 60.1 24.5H55.97ZM57.37 23.282H60.016C60.828 23.282 61.528 23.128 62.116 22.82C62.7133 22.512 63.1753 22.0827 63.502 21.532C63.8287 20.972 63.992 20.328 63.992 19.6C63.992 18.8627 63.8287 18.2187 63.502 17.668C63.1753 17.1173 62.7133 16.688 62.116 16.38C61.528 16.072 60.828 15.918 60.016 15.918H57.37V23.282ZM70.5184 24.584C69.7717 24.584 69.1091 24.4207 68.5304 24.094C67.9517 23.7673 67.4944 23.3193 67.1584 22.75C66.8224 22.1713 66.6544 21.518 66.6544 20.79C66.6544 20.0527 66.8224 19.3993 67.1584 18.83C67.4944 18.2607 67.9517 17.8173 68.5304 17.5C69.1091 17.1733 69.7717 17.01 70.5184 17.01C71.2557 17.01 71.9137 17.1733 72.4924 17.5C73.0804 17.8173 73.5377 18.2607 73.8644 18.83C74.2004 19.39 74.3684 20.0433 74.3684 20.79C74.3684 21.5273 74.2004 22.1807 73.8644 22.75C73.5377 23.3193 73.0804 23.7673 72.4924 24.094C71.9137 24.4207 71.2557 24.584 70.5184 24.584ZM70.5184 23.408C70.9944 23.408 71.4191 23.3007 71.7924 23.086C72.1751 22.8713 72.4737 22.568 72.6884 22.176C72.9031 21.7747 73.0104 21.3127 73.0104 20.79C73.0104 20.258 72.9031 19.8007 72.6884 19.418C72.4737 19.026 72.1751 18.7227 71.7924 18.508C71.4191 18.2933 70.9944 18.186 70.5184 18.186C70.0424 18.186 69.6177 18.2933 69.2444 18.508C68.8711 18.7227 68.5724 19.026 68.3484 19.418C68.1244 19.8007 68.0124 20.258 68.0124 20.79C68.0124 21.3127 68.1244 21.7747 68.3484 22.176C68.5724 22.568 68.8711 22.8713 69.2444 23.086C69.6177 23.3007 70.0424 23.408 70.5184 23.408ZM77.59 24.5L74.832 17.08H76.106L78.556 23.8H77.954L80.502 17.08H81.636L84.128 23.8H83.54L86.046 17.08H87.25L84.478 24.5H83.19L80.852 18.368H81.244L78.878 24.5H77.59ZM92.5758 17.01C93.1825 17.01 93.7145 17.1267 94.1718 17.36C94.6385 17.5933 95.0025 17.948 95.2638 18.424C95.5252 18.9 95.6558 19.502 95.6558 20.23V24.5H94.3118V20.384C94.3118 19.6653 94.1345 19.124 93.7798 18.76C93.4345 18.396 92.9445 18.214 92.3098 18.214C91.8338 18.214 91.4185 18.3073 91.0638 18.494C90.7092 18.6807 90.4338 18.956 90.2378 19.32C90.0512 19.684 89.9578 20.1367 89.9578 20.678V24.5H88.6138V17.08H89.9018V19.082L89.6918 18.55C89.9345 18.0647 90.3078 17.6867 90.8118 17.416C91.3158 17.1453 91.9038 17.01 92.5758 17.01ZM98.1431 24.5V14.112H99.4871V24.5H98.1431ZM105.231 24.584C104.485 24.584 103.822 24.4207 103.243 24.094C102.665 23.7673 102.207 23.3193 101.871 22.75C101.535 22.1713 101.367 21.518 101.367 20.79C101.367 20.0527 101.535 19.3993 101.871 18.83C102.207 18.2607 102.665 17.8173 103.243 17.5C103.822 17.1733 104.485 17.01 105.231 17.01C105.969 17.01 106.627 17.1733 107.205 17.5C107.793 17.8173 108.251 18.2607 108.577 18.83C108.913 19.39 109.081 20.0433 109.081 20.79C109.081 21.5273 108.913 22.1807 108.577 22.75C108.251 23.3193 107.793 23.7673 107.205 24.094C106.627 24.4207 105.969 24.584 105.231 24.584ZM105.231 23.408C105.707 23.408 106.132 23.3007 106.505 23.086C106.888 22.8713 107.187 22.568 107.401 22.176C107.616 21.7747 107.723 21.3127 107.723 20.79C107.723 20.258 107.616 19.8007 107.401 19.418C107.187 19.026 106.888 18.7227 106.505 18.508C106.132 18.2933 105.707 18.186 105.231 18.186C104.755 18.186 104.331 18.2933 103.957 18.508C103.584 18.7227 103.285 19.026 103.061 19.418C102.837 19.8007 102.725 20.258 102.725 20.79C102.725 21.3127 102.837 21.7747 103.061 22.176C103.285 22.568 103.584 22.8713 103.957 23.086C104.331 23.3007 104.755 23.408 105.231 23.408ZM115.478 24.5V22.932L115.408 22.638V19.964C115.408 19.3947 115.24 18.956 114.904 18.648C114.577 18.3307 114.082 18.172 113.42 18.172C112.981 18.172 112.552 18.2467 112.132 18.396C111.712 18.536 111.357 18.7273 111.068 18.97L110.508 17.962C110.89 17.654 111.348 17.4207 111.88 17.262C112.421 17.094 112.986 17.01 113.574 17.01C114.591 17.01 115.375 17.2573 115.926 17.752C116.476 18.2467 116.752 19.0027 116.752 20.02V24.5H115.478ZM113.042 24.584C112.491 24.584 112.006 24.4907 111.586 24.304C111.175 24.1173 110.858 23.8607 110.634 23.534C110.41 23.198 110.298 22.82 110.298 22.4C110.298 21.9987 110.391 21.6347 110.578 21.308C110.774 20.9813 111.086 20.72 111.516 20.524C111.954 20.328 112.542 20.23 113.28 20.23H115.632V21.196H113.336C112.664 21.196 112.211 21.308 111.978 21.532C111.744 21.756 111.628 22.0267 111.628 22.344C111.628 22.708 111.772 23.002 112.062 23.226C112.351 23.4407 112.752 23.548 113.266 23.548C113.77 23.548 114.208 23.436 114.582 23.212C114.964 22.988 115.24 22.6613 115.408 22.232L115.674 23.156C115.496 23.5947 115.184 23.9447 114.736 24.206C114.288 24.458 113.723 24.584 113.042 24.584ZM122.305 24.584C121.586 24.584 120.942 24.4253 120.373 24.108C119.813 23.7907 119.37 23.3473 119.043 22.778C118.716 22.2087 118.553 21.546 118.553 20.79C118.553 20.034 118.716 19.376 119.043 18.816C119.37 18.2467 119.813 17.8033 120.373 17.486C120.942 17.1687 121.586 17.01 122.305 17.01C122.93 17.01 123.495 17.15 123.999 17.43C124.503 17.71 124.904 18.13 125.203 18.69C125.511 19.25 125.665 19.95 125.665 20.79C125.665 21.63 125.516 22.33 125.217 22.89C124.928 23.45 124.531 23.8747 124.027 24.164C123.523 24.444 122.949 24.584 122.305 24.584ZM122.417 23.408C122.884 23.408 123.304 23.3007 123.677 23.086C124.06 22.8713 124.358 22.568 124.573 22.176C124.797 21.7747 124.909 21.3127 124.909 20.79C124.909 20.258 124.797 19.8007 124.573 19.418C124.358 19.026 124.06 18.7227 123.677 18.508C123.304 18.2933 122.884 18.186 122.417 18.186C121.941 18.186 121.516 18.2933 121.143 18.508C120.77 18.7227 120.471 19.026 120.247 19.418C120.023 19.8007 119.911 20.258 119.911 20.79C119.911 21.3127 120.023 21.7747 120.247 22.176C120.471 22.568 120.77 22.8713 121.143 23.086C121.516 23.3007 121.941 23.408 122.417 23.408ZM124.951 24.5V22.498L125.035 20.776L124.895 19.054V14.112H126.239V24.5H124.951Z" fill="white"/>
</g>
<defs>
<clipPath id="clip0_0_1573">
<rect width="92" height="17" fill="white" transform="translate(36.5 10.5)"/>
</clipPath>
</defs>
</svg>
