<svg width="162" height="38" viewBox="0 0 162 38" fill="none" xmlns="http://www.w3.org/2000/svg">
<rect x="1" y="1" width="160" height="36" rx="4" fill="#808080" fill-opacity="0.55" stroke="black" stroke-opacity="0.12"/>
<g clip-path="url(#clip0_0_1572)">
<path fill-rule="evenodd" clip-rule="evenodd" d="M54.9168 18.4166V14.9166C54.9168 14.5944 55.178 14.3333 55.5002 14.3333C55.8223 14.3333 56.0835 14.5944 56.0835 14.9166V18.4166H59.5835C59.9057 18.4166 60.1668 18.6778 60.1668 18.9999C60.1668 19.3221 59.9057 19.5833 59.5835 19.5833H56.0835V23.0833C56.0835 23.4054 55.8223 23.6666 55.5002 23.6666C55.178 23.6666 54.9168 23.4054 54.9168 23.0833V19.5833H51.4168C51.0947 19.5833 50.8335 19.3221 50.8335 18.9999C50.8335 18.6778 51.0947 18.4166 51.4168 18.4166H54.9168Z" fill="black"/>
<mask id="mask0_0_1572" style="mask-type:luminance" maskUnits="userSpaceOnUse" x="50" y="14" width="11" height="10">
<path fill-rule="evenodd" clip-rule="evenodd" d="M54.9168 18.4166V14.9166C54.9168 14.5944 55.178 14.3333 55.5002 14.3333C55.8223 14.3333 56.0835 14.5944 56.0835 14.9166V18.4166H59.5835C59.9057 18.4166 60.1668 18.6778 60.1668 18.9999C60.1668 19.3221 59.9057 19.5833 59.5835 19.5833H56.0835V23.0833C56.0835 23.4054 55.8223 23.6666 55.5002 23.6666C55.178 23.6666 54.9168 23.4054 54.9168 23.0833V19.5833H51.4168C51.0947 19.5833 50.8335 19.3221 50.8335 18.9999C50.8335 18.6778 51.0947 18.4166 51.4168 18.4166H54.9168Z" fill="white"/>
</mask>
<g mask="url(#mask0_0_1572)">
<rect x="48.5" y="12" width="14" height="14" fill="#FF3B30"/>
</g>
<path d="M67.97 24.5V14.7H69.118L73.514 22.106H72.898L77.238 14.7H78.386L78.4 24.5H77.056L77.042 16.814H77.364L73.5 23.31H72.856L68.964 16.814H69.314V24.5H67.97ZM81.4671 27.3C81.1124 27.3 80.7671 27.2393 80.4311 27.118C80.0951 27.006 79.8058 26.838 79.5631 26.614L80.1371 25.606C80.3238 25.7833 80.5291 25.9187 80.7531 26.012C80.9771 26.1053 81.2151 26.152 81.4671 26.152C81.7938 26.152 82.0644 26.068 82.2791 25.9C82.4938 25.732 82.6944 25.4333 82.8811 25.004L83.3431 23.982L83.4831 23.814L86.3951 17.08H87.7111L84.1131 25.242C83.8984 25.7647 83.6558 26.1753 83.3851 26.474C83.1238 26.7727 82.8344 26.9827 82.5171 27.104C82.1998 27.2347 81.8498 27.3 81.4671 27.3ZM83.2311 24.738L79.8431 17.08H81.2431L84.1271 23.688L83.2311 24.738ZM92.9212 24.5V14.7H94.3212V23.282H99.6272V24.5H92.9212ZM101.038 24.5V17.08H102.382V24.5H101.038ZM101.71 15.652C101.448 15.652 101.229 15.568 101.052 15.4C100.884 15.232 100.8 15.0267 100.8 14.784C100.8 14.532 100.884 14.322 101.052 14.154C101.229 13.986 101.448 13.902 101.71 13.902C101.971 13.902 102.186 13.986 102.354 14.154C102.531 14.3127 102.62 14.5133 102.62 14.756C102.62 15.008 102.536 15.2227 102.368 15.4C102.2 15.568 101.98 15.652 101.71 15.652ZM107.076 24.584C106.46 24.584 105.872 24.5 105.312 24.332C104.761 24.164 104.327 23.9587 104.01 23.716L104.57 22.652C104.887 22.8667 105.279 23.0487 105.746 23.198C106.212 23.3473 106.688 23.422 107.174 23.422C107.799 23.422 108.247 23.3333 108.518 23.156C108.798 22.9787 108.938 22.7313 108.938 22.414C108.938 22.1807 108.854 21.9987 108.686 21.868C108.518 21.7373 108.294 21.6393 108.014 21.574C107.743 21.5087 107.44 21.4527 107.104 21.406C106.768 21.35 106.432 21.2847 106.096 21.21C105.76 21.126 105.452 21.014 105.172 20.874C104.892 20.7247 104.668 20.524 104.5 20.272C104.332 20.0107 104.248 19.6653 104.248 19.236C104.248 18.788 104.374 18.396 104.626 18.06C104.878 17.724 105.232 17.4673 105.69 17.29C106.156 17.1033 106.707 17.01 107.342 17.01C107.827 17.01 108.317 17.0707 108.812 17.192C109.316 17.304 109.726 17.4673 110.044 17.682L109.47 18.746C109.134 18.522 108.784 18.368 108.42 18.284C108.056 18.2 107.692 18.158 107.328 18.158C106.74 18.158 106.301 18.256 106.012 18.452C105.722 18.6387 105.578 18.8813 105.578 19.18C105.578 19.432 105.662 19.628 105.83 19.768C106.007 19.8987 106.231 20.0013 106.502 20.076C106.782 20.1507 107.09 20.216 107.426 20.272C107.762 20.3187 108.098 20.384 108.434 20.468C108.77 20.5427 109.073 20.65 109.344 20.79C109.624 20.93 109.848 21.126 110.016 21.378C110.193 21.63 110.282 21.966 110.282 22.386C110.282 22.834 110.151 23.2213 109.89 23.548C109.628 23.8747 109.26 24.1313 108.784 24.318C108.308 24.4953 107.738 24.584 107.076 24.584ZM114.51 24.584C113.763 24.584 113.184 24.3833 112.774 23.982C112.363 23.5807 112.158 23.0067 112.158 22.26V15.456H113.502V22.204C113.502 22.6053 113.6 22.9133 113.796 23.128C114.001 23.3427 114.29 23.45 114.664 23.45C115.084 23.45 115.434 23.3333 115.714 23.1L116.134 24.066C115.928 24.2433 115.681 24.374 115.392 24.458C115.112 24.542 114.818 24.584 114.51 24.584ZM110.898 18.186V17.08H115.63V18.186H110.898Z" fill="white"/>
</g>
<defs>
<clipPath id="clip0_0_1572">
<rect width="68" height="17" fill="white" transform="translate(48.5 10.5)"/>
</clipPath>
</defs>
</svg>
