<svg width="87" height="87" viewBox="0 0 87 87" fill="none" xmlns="http://www.w3.org/2000/svg">
<g filter="url(#filter0_d_206_11791)">
<path fill-rule="evenodd" clip-rule="evenodd" d="M43.5 68C59.7924 68 73 54.7924 73 38.5C73 22.2076 59.7924 9 43.5 9C27.2076 9 14 22.2076 14 38.5C14 54.7924 27.2076 68 43.5 68Z" fill="url(#paint0_linear_206_11791)"/>
</g>
<path fill-rule="evenodd" clip-rule="evenodd" d="M37.5301 25.9565C36.864 25.5401 36 26.019 36 26.8045V50.9187C36 51.708 36.8715 52.1862 37.5372 51.7622L56.6444 39.5926C57.2645 39.1976 57.2607 38.2909 56.6373 37.9012L37.5301 25.9565Z" fill="white"/>
<defs>
<filter id="filter0_d_206_11791" x="0" y="0" width="87" height="87" filterUnits="userSpaceOnUse" color-interpolation-filters="sRGB">
<feFlood flood-opacity="0" result="BackgroundImageFix"/>
<feColorMatrix in="SourceAlpha" type="matrix" values="0 0 0 0 0 0 0 0 0 0 0 0 0 0 0 0 0 0 127 0" result="hardAlpha"/>
<feOffset dy="5"/>
<feGaussianBlur stdDeviation="7"/>
<feColorMatrix type="matrix" values="0 0 0 0 0.976471 0 0 0 0 0.847059 0 0 0 0 0.196078 0 0 0 0.245356 0"/>
<feBlend mode="normal" in2="BackgroundImageFix" result="effect1_dropShadow_206_11791"/>
<feBlend mode="normal" in="SourceGraphic" in2="effect1_dropShadow_206_11791" result="shape"/>
</filter>
<linearGradient id="paint0_linear_206_11791" x1="2.195" y1="30.4175" x2="33.5863" y2="79.759" gradientUnits="userSpaceOnUse">
<stop stop-color="#FF3B30"/>
<stop offset="1" stop-color="#003893"/>
</linearGradient>
</defs>
</svg>
